<?xml version="1.0" encoding="UTF-8" standalone="no"?>
<!-- Created with Inkscape (http://www.inkscape.org/) -->

<svg
   width="210mm"
   height="50mm"
   viewBox="0 0 210 50"
   version="1.1"
   id="svg5"
   inkscape:version="1.1 (c68e22c387, 2021-05-23)"
   sodipodi:docname="Nomesite.svg"
   xmlns:inkscape="http://www.inkscape.org/namespaces/inkscape"
   xmlns:sodipodi="http://sodipodi.sourceforge.net/DTD/sodipodi-0.dtd"
   xmlns="http://www.w3.org/2000/svg"
   xmlns:svg="http://www.w3.org/2000/svg">
  <sodipodi:namedview
     id="namedview7"
     pagecolor="#ffffff"
     bordercolor="#666666"
     borderopacity="1.0"
     inkscape:pageshadow="2"
     inkscape:pageopacity="0.0"
     inkscape:pagecheckerboard="0"
     inkscape:document-units="mm"
     showgrid="false"
     inkscape:zoom="0.25"
     inkscape:cx="364"
     inkscape:cy="486"
     inkscape:window-width="1366"
     inkscape:window-height="705"
     inkscape:window-x="-8"
     inkscape:window-y="-8"
     inkscape:window-maximized="1"
     inkscape:current-layer="layer1" />
  <defs
     id="defs2">
    <rect
       x="343.23199"
       y="170.53664"
       width="207.23441"
       height="369.13629"
       id="rect363" />
  </defs>
  <g
     inkscape:label="Camada 1"
     inkscape:groupmode="layer"
     id="layer1">
    <g
       id="g22841"
       transform="translate(0,-71.966667)">
      <path
         style="fill:#d624ad;fill-opacity:1;stroke:#d624ad;stroke-width:0.264583px;stroke-linecap:butt;stroke-linejoin:miter;stroke-opacity:1"
         d="M 3.3421573,120.68827 14.348648,77.060055 19.212092,76.4247 26.593835,109.95381 38.537992,73.614913 43.660698,72.945687 27.476745,118.4262 23.867939,118.86201 16.389757,86.48578 8.2056008,120.05291 Z"
         id="path2240"
         sodipodi:nodetypes="ccccccccccc" />
      <path
         style="fill:#d624ad;fill-opacity:1;stroke:#d624ad;stroke-width:0.264583px;stroke-linecap:butt;stroke-linejoin:miter;stroke-opacity:1"
         d="m 39.975868,106.33732 11.00461,-2.43706 C 48.720314,90.875333 33.58102,98.411642 35.270859,110.1204 c 1.585474,8.68705 9.36949,11.38922 16.892732,3.857 -0.533982,-1.764 -1.515157,-2.8712 -3.14352,-3.02783 -4.533652,7.69411 -12.077235,0.52766 -9.044203,-4.61225 z"
         id="path3282"
         sodipodi:nodetypes="cccccc" />
      <path
         style="fill:#ffffff;fill-opacity:1;stroke:#d624ad;stroke-width:0.241657px;stroke-linecap:butt;stroke-linejoin:miter;stroke-opacity:1"
         d="m 40.740905,104.54234 6.979459,-1.49816 c -2.37208,-6.689463 -7.174352,-2.0557 -6.979459,1.49816 z"
         id="path5616"
         sodipodi:nodetypes="ccc" />
      <path
         style="fill:#d624ad;fill-opacity:1;stroke:#d624ad;stroke-width:0.264583px;stroke-linecap:butt;stroke-linejoin:miter;stroke-opacity:1"
         d="m 53.368949,97.900211 c 4.278865,20.786289 4.275032,21.072629 4.275032,21.072629 l 5.016587,-2.41842 4.425007,-11.41999 1.583019,9.40553 6.574018,-1.7427 6.046882,-26.203137 -4.285153,0.968475 -5.109772,20.024872 -3.560153,-10.64301 -3.443832,1.948781 -3.889669,13.982489 -3.903223,-16.931608 z"
         id="path7580" />
      <path
         style="fill:#d624ad;fill-opacity:1;stroke:#d624ad;stroke-width:0.265;stroke-linecap:butt;stroke-linejoin:miter;stroke-miterlimit:4;stroke-dasharray:none;stroke-opacity:1"
         d="m 178.08027,116.14903 3.22318,-17.476209 2.44633,-0.29996 5.60421,13.277699 4.10118,-14.583159 2.57675,-0.315956 -5.76299,18.263705 -1.81721,0.20848 -5.59019,-12.81778 -2.33492,13.44328 z"
         id="path2240-7"
         sodipodi:nodetypes="ccccccccccc" />
      <path
         style="fill:#d624ad;fill-opacity:1;stroke:#d624ad;stroke-width:0.264583px;stroke-linecap:butt;stroke-linejoin:miter;stroke-opacity:1"
         d="m 85.820974,78.016648 1.600991,41.214802 4.285543,-0.47016 -0.736547,-20.043509 8.012747,-1.8782 1.011038,20.869759 4.144554,-0.59745 -1.3097,-41.674922 -4.430245,0.628787 -0.04957,14.706182 -7.159376,2.070014 -0.79446,-15.612664 z"
         id="path7697" />
      <path
         style="fill:#d624ad;fill-opacity:1;stroke:#d624ad;stroke-width:0.265;stroke-linecap:butt;stroke-linejoin:miter;stroke-miterlimit:4;stroke-dasharray:none;stroke-opacity:1"
         d="m 138.45179,96.642374 c 0.0233,2.506887 3.87488,2.379287 3.87595,0.0859 -0.003,-2.467454 -3.8758,-2.299745 -3.87595,-0.0859 z"
         id="path7699-0"
         sodipodi:nodetypes="ccc" />
      <path
         style="fill:#d624ad;fill-opacity:1;stroke:#d624ad;stroke-width:0.264583px;stroke-linecap:butt;stroke-linejoin:miter;stroke-opacity:1"
         d="m 113.27276,115.38211 c 10.41913,-0.16249 9.78588,-15.30532 0.2534,-15.24474 -10.25573,0.0828 -9.45518,15.30669 -0.2534,15.24474 z"
         id="path7699"
         sodipodi:nodetypes="ccc" />
      <path
         style="fill:#ffffff;fill-opacity:1;stroke:#d624ad;stroke-width:0.264583px;stroke-linecap:butt;stroke-linejoin:miter;stroke-opacity:1"
         d="m 113.21038,111.45577 c -4.13964,0.16927 -3.93399,-7.59366 -0.19541,-7.74512 4.25228,-0.0527 5.10677,7.67039 0.19541,7.74512 z"
         id="path8057"
         sodipodi:nodetypes="ccc" />
      <path
         style="fill:#d624ad;fill-opacity:1;stroke:#d624ad;stroke-width:0.264583px;stroke-linecap:butt;stroke-linejoin:miter;stroke-opacity:1"
         d="m 169.54702,114.57963 c 10.3951,0.73892 10.69734,-14.42731 1.19226,-15.191263 -10.22732,-0.804343 -10.36781,14.457263 -1.19226,15.191263 z"
         id="path7699-8"
         sodipodi:nodetypes="ccc" />
      <path
         style="fill:#ffffff;fill-opacity:1;stroke:#d624ad;stroke-width:0.264583px;stroke-linecap:butt;stroke-linejoin:miter;stroke-opacity:1"
         d="m 169.72686,110.65601 c -4.13655,-0.18909 -3.45306,-7.91815 0.28264,-7.74598 4.24164,0.31517 4.61728,8.09616 -0.28264,7.74598 z"
         id="path8057-4"
         sodipodi:nodetypes="ccc" />
      <path
         style="fill:#d624ad;fill-opacity:1;stroke:#d624ad;stroke-width:0.264583px;stroke-linecap:butt;stroke-linejoin:miter;stroke-opacity:1"
         d="m 123.08696,95.829702 1.52945,21.866048 3.42693,-0.27644 -1.17147,-13.04204 c 4.0155,-6.424979 5.37409,-4.23615 9.8188,-2.64831 l -0.74207,-4.223789 c -4.21615,-1.596539 -5.57678,-3.016386 -9.49414,2.05096 l -0.27462,-4.832653 z"
         id="path8799"
         sodipodi:nodetypes="ccccccccc" />
      <path
         style="fill:#d624ad;fill-opacity:1;stroke:#d624ad;stroke-width:0.264583px;stroke-linecap:butt;stroke-linejoin:miter;stroke-opacity:1"
         d="m 138.96187,100.70565 0.0714,16.0637 3.14134,-0.0714 -0.21418,-16.991819 z"
         id="path9499" />
      <path
         style="fill:#d624ad;fill-opacity:1;stroke:#d624ad;stroke-width:0.264583px;stroke-linecap:butt;stroke-linejoin:miter;stroke-opacity:1"
         d="m 145.97343,99.703191 16.22297,-1.09164 -13.36924,14.586159 12.5146,-0.9788 -0.10305,1.78998 -17.23898,1.42772 12.86122,-14.41813 -10.92332,0.54275 z"
         id="path10801"
         sodipodi:nodetypes="ccccccccc" />
      <path
         style="fill:#d624ad;fill-opacity:1;stroke:#d624ad;stroke-width:0.258027;stroke-linecap:butt;stroke-linejoin:miter;stroke-miterlimit:4;stroke-dasharray:none;stroke-opacity:1"
         d="m 208.03513,103.1855 0.65173,-2.56133 c -5.30382,-2.897599 -10.36885,-0.22747 -11.24624,3.37057 -1.79973,6.13183 8.45057,3.04212 6.80461,7.41103 -1.72111,2.62177 -4.67893,2.61821 -8.7762,0.006 l -0.6942,2.67006 c 3.58269,2.15178 9.38349,1.89591 11.56813,-2.43406 3.0755,-6.97277 -7.15723,-3.85351 -6.61091,-7.88407 1.13055,-3.38236 6.14911,-2.38841 8.3053,-0.57926 1.1e-4,1.1e-4 -4.4e-4,0 -4.4e-4,0 z"
         id="path13254"
         sodipodi:nodetypes="ccccccccsc" />
    </g>
  </g>
</svg>
